<svg width="28" height="28" viewBox="0 0 28 28" fill="none" xmlns="http://www.w3.org/2000/svg">
<path d="M22.0361 10.1704H5.08539C4.52344 10.1704 3.98451 10.3937 3.58715 10.791C3.18979 11.1884 2.96655 11.7273 2.96655 12.2893V21.1884C2.96655 21.7504 3.18979 22.2893 3.58715 22.6866C3.98451 23.084 4.52344 23.3072 5.08539 23.3072H22.0361C22.5981 23.3072 23.137 23.084 23.5344 22.6866C23.9317 22.2893 24.155 21.7504 24.155 21.1884V12.2893C24.155 11.7273 23.9317 11.1884 23.5344 10.791C23.137 10.3937 22.5981 10.1704 22.0361 10.1704ZM21.6123 20.7646H5.50916V12.713H21.6123V20.7646ZM4.66162 7.20406C4.66162 6.86689 4.79557 6.54353 5.03398 6.30511C5.2724 6.0667 5.59576 5.93276 5.93293 5.93276H21.1886C21.5257 5.93276 21.8491 6.0667 22.0875 6.30511C22.3259 6.54353 22.4599 6.86689 22.4599 7.20406C22.4599 7.54123 22.3259 7.86459 22.0875 8.10301C21.8491 8.34142 21.5257 8.47536 21.1886 8.47536H5.93293C5.59576 8.47536 5.2724 8.34142 5.03398 8.10301C4.79557 7.86459 4.66162 7.54123 4.66162 7.20406ZM6.3567 2.96638C6.3567 2.62921 6.49064 2.30585 6.72905 2.06743C6.96747 1.82902 7.29083 1.69508 7.628 1.69508H19.4935C19.8307 1.69508 20.154 1.82902 20.3925 2.06743C20.6309 2.30585 20.7648 2.62921 20.7648 2.96638C20.7648 3.30355 20.6309 3.62691 20.3925 3.86533C20.154 4.10374 19.8307 4.23768 19.4935 4.23768H7.628C7.29083 4.23768 6.96747 4.10374 6.72905 3.86533C6.49064 3.62691 6.3567 3.30355 6.3567 2.96638Z" fill="#FBF2FF"/>
</svg>
