<svg width="25" height="25" viewBox="0 0 25 25" fill="none" xmlns="http://www.w3.org/2000/svg">
<path fill-rule="evenodd" clip-rule="evenodd" d="M16.2726 9.15336C16.2726 10.2323 15.844 11.2671 15.081 12.03C14.3181 12.7929 13.2834 13.2215 12.2044 13.2215C11.1255 13.2215 10.0907 12.7929 9.32777 12.03C8.56484 11.2671 8.13623 10.2323 8.13623 9.15336C8.13623 8.07442 8.56484 7.03966 9.32777 6.27673C10.0907 5.5138 11.1255 5.08519 12.2044 5.08519C13.2834 5.08519 14.3181 5.5138 15.081 6.27673C15.844 7.03966 16.2726 8.07442 16.2726 9.15336ZM14.2385 9.15336C14.2385 9.69284 14.0242 10.2102 13.6427 10.5917C13.2613 10.9731 12.7439 11.1874 12.2044 11.1874C11.6649 11.1874 11.1476 10.9731 10.7661 10.5917C10.3846 10.2102 10.1703 9.69284 10.1703 9.15336C10.1703 8.61389 10.3846 8.09651 10.7661 7.71505C11.1476 7.33358 11.6649 7.11928 12.2044 7.11928C12.7439 7.11928 13.2613 7.33358 13.6427 7.71505C14.0242 8.09651 14.2385 8.61389 14.2385 9.15336Z" fill="#FBF2FF"/>
<path fill-rule="evenodd" clip-rule="evenodd" d="M12.2046 1.01703C6.02603 1.01703 1.01709 6.02597 1.01709 12.2045C1.01709 18.383 6.02603 23.392 12.2046 23.392C18.3831 23.392 23.392 18.383 23.392 12.2045C23.392 6.02597 18.3831 1.01703 12.2046 1.01703ZM3.05118 12.2045C3.05118 14.3301 3.77633 16.2869 4.99169 17.841C5.84544 16.7203 6.94661 15.8121 8.20925 15.1872C9.4719 14.5623 10.8619 14.2377 12.2707 14.2386C13.6614 14.237 15.034 14.553 16.2841 15.1624C17.5341 15.7719 18.6284 16.6588 19.4835 17.7555C20.3648 16.5998 20.9581 15.2508 21.2144 13.8202C21.4708 12.3896 21.3828 10.9185 20.9577 9.52865C20.5327 8.13881 19.7828 6.87016 18.7701 5.82768C17.7574 4.7852 16.511 3.99886 15.134 3.53371C13.7571 3.06857 12.2892 2.93799 10.8518 3.15279C9.41433 3.36759 8.04871 3.92159 6.8679 4.76896C5.68709 5.61632 4.72504 6.73268 4.06133 8.02567C3.39763 9.31866 3.05136 10.7511 3.05118 12.2045ZM12.2046 21.3579C10.1033 21.3613 8.06534 20.6384 6.4359 19.3116C7.09169 18.3725 7.96471 17.6057 8.98061 17.0766C9.99652 16.5475 11.1252 16.2717 12.2707 16.2727C13.4018 16.2717 14.5168 16.5406 15.5232 17.0571C16.5295 17.5736 17.398 18.3228 18.0566 19.2424C16.4146 20.6124 14.343 21.3612 12.2046 21.3579Z" fill="#FBF2FF"/>
</svg>
